<?xml version="1.0" encoding="UTF-8"?>
<svg id="Logo" xmlns="http://www.w3.org/2000/svg" viewBox="0 0 1080 1080">
  <defs>
    <style>
      .cls-1 {
        fill: #fff;
      }
    </style>
  </defs>
  <g id="png_branco" data-name="png branco">
    <rect width="1080" height="1080"/>
    <g id="png_clara" data-name="png clara">
      <g>
        <path class="cls-1" d="M173.19,601.37l36.64-81.36h28.11l36.64,81.36h-19.8l-7.74-17.18h-46.32l-7.74,17.18h-19.8ZM207.32,569.39h33.11l-15.82-35.16h-1.48l-15.82,35.16Z"/>
        <path class="cls-1" d="M281.97,601.37v-81.36h16.5v81.36h-16.5Z"/>
        <path class="cls-1" d="M310.87,533.09v-12.86h16.73v12.86h-16.73ZM310.99,601.37v-58.6h16.5v58.6h-16.5Z"/>
        <path class="cls-1" d="M358.67,601.37c-6.68,0-11.55-1.67-14.62-5.01-3.07-3.34-4.61-7.66-4.61-12.97v-40.63h16.5v38.69c0,4.55,2.28,6.83,6.83,6.83h23.67c4.55,0,6.83-2.28,6.83-6.83v-38.69h16.5v40.63c0,5.31-1.54,9.64-4.61,12.97-3.07,3.34-7.95,5.01-14.62,5.01h-31.86Z"/>
        <path class="cls-1" d="M419.77,601.94v-13.09h55.76c3.19,0,4.78-1.78,4.78-5.35s-1.59-5.23-4.78-5.23h-36.07c-6.75,0-11.87-1.54-15.36-4.61-3.49-3.07-5.23-7.49-5.23-13.26s1.76-10.34,5.29-13.48c3.53-3.15,8.63-4.72,15.31-4.72h51.89v13.09h-51.09c-3.26,0-4.89,1.59-4.89,4.78,0,1.59.45,2.84,1.37,3.76.91.91,2.09,1.37,3.53,1.37h38.23c5.92,0,10.45,1.54,13.6,4.61,3.15,3.07,4.72,7.53,4.72,13.37s-1.59,10.53-4.78,13.83c-3.19,3.3-7.7,4.95-13.54,4.95h-58.72Z"/>
        <path class="cls-1" d="M578.52,601.94c-15.02,0-26.52-3.47-34.48-10.41s-11.95-17.24-11.95-30.9,3.98-23.86,11.95-30.84c7.97-6.98,19.46-10.43,34.48-10.36l40.97.23v14.57h-39.71c-9.86,0-17.18,2.09-21.96,6.26-4.78,4.17-7.17,10.89-7.17,20.14s2.39,15.99,7.17,20.2c4.78,4.21,12.1,6.32,21.96,6.32h40.85v14.79h-42.1Z"/>
        <path class="cls-1" d="M630.29,601.37v-81.36h16.5v81.36h-16.5Z"/>
        <path class="cls-1" d="M689.35,601.94c-10.17,0-18.09-2.52-23.78-7.57-5.69-5.04-8.53-12.46-8.53-22.25s2.84-17.31,8.53-22.36c5.69-5.04,13.62-7.57,23.78-7.57h21.05c10.17,0,18.09,2.52,23.78,7.57,5.69,5.05,8.53,12.5,8.53,22.36s-2.84,17.2-8.53,22.25c-5.69,5.05-13.62,7.57-23.78,7.57h-21.05ZM689.35,588.85h21.05c4.93,0,8.71-1.37,11.32-4.1,2.62-2.73,3.92-6.94,3.92-12.63s-1.31-10.01-3.92-12.74c-2.62-2.73-6.39-4.1-11.32-4.1h-21.05c-4.93,0-8.71,1.37-11.32,4.1s-3.93,6.98-3.93,12.74,1.31,9.9,3.93,12.63c2.62,2.73,6.39,4.1,11.32,4.1Z"/>
        <path class="cls-1" d="M771.63,601.37c-6.68,0-11.55-1.67-14.62-5.01-3.07-3.34-4.61-7.66-4.61-12.97v-40.63h16.5v38.69c0,4.55,2.28,6.83,6.83,6.83h23.67c4.55,0,6.83-2.28,6.83-6.83v-38.69h16.5v40.63c0,5.31-1.54,9.64-4.61,12.97-3.07,3.34-7.95,5.01-14.62,5.01h-31.86Z"/>
        <path class="cls-1" d="M864.71,601.37c-10.17,0-18.09-2.5-23.78-7.51-5.69-5.01-8.53-12.25-8.53-21.74s2.84-16.84,8.53-21.85c5.69-5.01,13.62-7.51,23.78-7.51h38.12v13.09h-38.12c-4.93,0-8.71,1.35-11.32,4.04-2.62,2.69-3.93,6.77-3.93,12.23s1.31,9.43,3.93,12.12c2.62,2.69,6.39,4.04,11.32,4.04h39.26v13.09h-39.26ZM890.31,601.37v-81.36h16.5v81.36h-16.5Z"/>
      </g>
      <g>
        <path class="cls-1" d="M357.42,658.18c-2.18,0-4.15-.36-5.9-1.08-1.75-.72-3.19-1.75-4.34-3.08-1.14-1.33-1.91-2.91-2.29-4.74l2.61-.44c.55,2.12,1.71,3.8,3.51,5.02,1.79,1.23,3.95,1.84,6.47,1.84,1.71,0,3.22-.27,4.54-.82,1.31-.55,2.34-1.32,3.08-2.31.74-1,1.11-2.16,1.11-3.49,0-.96-.17-1.76-.52-2.41-.35-.65-.79-1.18-1.34-1.6-.55-.42-1.13-.76-1.75-1.02-.62-.26-1.2-.47-1.75-.63l-8.01-2.39c-1.06-.31-2.01-.7-2.84-1.16s-1.53-1-2.1-1.62c-.57-.61-1-1.31-1.31-2.09-.3-.78-.45-1.65-.45-2.61,0-1.71.46-3.21,1.37-4.49.91-1.28,2.17-2.28,3.77-3,1.6-.72,3.44-1.07,5.52-1.07,2.1.02,3.98.4,5.64,1.16,1.67.76,3.04,1.83,4.1,3.22,1.07,1.39,1.76,3.03,2.07,4.93l-2.63.46c-.21-1.46-.73-2.74-1.58-3.83-.85-1.09-1.93-1.94-3.24-2.54-1.31-.6-2.77-.91-4.38-.91-1.55-.01-2.92.24-4.1.77-1.19.53-2.12,1.25-2.8,2.15-.68.9-1.02,1.92-1.02,3.05s.32,2.12.96,2.82c.64.7,1.43,1.25,2.37,1.65.94.4,1.83.72,2.69.97l6.42,1.9c.61.18,1.33.43,2.17.75.84.33,1.67.79,2.48,1.38.81.6,1.49,1.39,2.03,2.37s.81,2.21.81,3.68-.27,2.71-.82,3.85c-.55,1.14-1.33,2.1-2.35,2.89-1.02.79-2.22,1.39-3.61,1.82s-2.91.63-4.58.63Z"/>
        <path class="cls-1" d="M383.07,658.18c-2.38,0-4.39-.54-6.04-1.62-1.65-1.08-2.91-2.57-3.78-4.47-.87-1.9-1.31-4.09-1.31-6.57s.44-4.69,1.33-6.58c.89-1.9,2.16-3.37,3.82-4.41,1.66-1.05,3.66-1.57,5.99-1.57s4.39.53,6.05,1.6c1.66,1.07,2.92,2.55,3.78,4.44.86,1.89,1.29,4.06,1.29,6.53s-.43,4.73-1.31,6.63c-.87,1.9-2.14,3.37-3.81,4.44-1.67,1.06-3.67,1.59-6.02,1.59ZM383.07,655.71c2.82,0,4.92-.94,6.32-2.83,1.39-1.89,2.09-4.34,2.09-7.35s-.7-5.52-2.1-7.35c-1.4-1.83-3.5-2.74-6.31-2.74-1.9,0-3.48.43-4.71,1.29-1.24.86-2.17,2.05-2.78,3.56-.61,1.51-.92,3.26-.92,5.23,0,3.07.71,5.53,2.14,7.39,1.42,1.86,3.51,2.79,6.27,2.79Z"/>
        <path class="cls-1" d="M399.51,657.52v-32.53h2.54v32.53h-2.54Z"/>
        <path class="cls-1" d="M417.88,658.07c-1.31,0-2.49-.19-3.53-.58s-1.94-.93-2.71-1.63c-.77-.7-1.4-1.53-1.9-2.48-.5-.95-.87-2-1.12-3.13-.24-1.14-.37-2.32-.37-3.56v-13.08h2.57v12.44c0,1.5.15,2.85.45,4.03.3,1.18.76,2.18,1.37,3.01.61.83,1.38,1.45,2.3,1.88.92.43,2.01.64,3.26.64s2.42-.22,3.37-.68c.95-.45,1.73-1.08,2.35-1.89.61-.81,1.07-1.77,1.37-2.89.3-1.11.45-2.33.45-3.64l2.01.24c0,2.58-.44,4.71-1.32,6.38s-2.06,2.91-3.55,3.72c-1.49.8-3.16,1.21-5.02,1.21ZM426,657.52v-5.38h-.24v-18.52h2.57v23.9h-2.32Z"/>
        <path class="cls-1" d="M444.28,658.18c-2.39,0-4.4-.54-6.04-1.6-1.64-1.07-2.88-2.55-3.73-4.45-.85-1.9-1.29-4.08-1.32-6.56.03-2.52.48-4.73,1.34-6.63.86-1.9,2.11-3.37,3.75-4.41,1.64-1.05,3.64-1.57,6.02-1.57s4.36.56,6.12,1.67c1.76,1.11,2.98,2.64,3.66,4.59l-2.48.91c-.61-1.49-1.56-2.64-2.86-3.46-1.3-.82-2.79-1.23-4.47-1.23-1.89,0-3.44.43-4.67,1.29-1.23.86-2.14,2.06-2.74,3.57-.6,1.52-.92,3.28-.95,5.27.04,3.05.76,5.51,2.16,7.36,1.39,1.85,3.46,2.78,6.21,2.78,1.7,0,3.17-.39,4.42-1.17,1.25-.78,2.2-1.92,2.87-3.41l2.52.86c-.93,2.02-2.23,3.56-3.9,4.61-1.67,1.05-3.64,1.58-5.91,1.58ZM443.11,668.12c-.52,0-1-.06-1.45-.19-.45-.13-.88-.28-1.29-.48l.73-1.93c.71.27,1.31.4,1.81.4.62,0,1.1-.2,1.43-.59.33-.39.5-.83.5-1.32,0-.71-.3-1.22-.91-1.53-.61-.31-1.28-.58-2.04-.82l1.66-4.54,2.12-.02-1.19,3.28c.77.34,1.4.81,1.9,1.41s.75,1.38.75,2.34c0,1.12-.4,2.07-1.2,2.83-.8.77-1.74,1.15-2.83,1.15Z"/>
        <path class="cls-1" d="M467.85,658.18c-2.38,0-4.39-.54-6.04-1.62-1.65-1.08-2.91-2.57-3.78-4.47s-1.31-4.09-1.31-6.57.44-4.69,1.33-6.58c.89-1.9,2.16-3.37,3.82-4.41,1.66-1.05,3.66-1.57,5.99-1.57s4.39.53,6.05,1.6c1.66,1.07,2.92,2.55,3.78,4.44.86,1.89,1.29,4.06,1.29,6.53s-.43,4.73-1.31,6.63c-.87,1.9-2.14,3.37-3.81,4.44-1.67,1.06-3.67,1.59-6.02,1.59ZM467.85,655.71c2.82,0,4.92-.94,6.32-2.83,1.39-1.89,2.09-4.34,2.09-7.35s-.7-5.52-2.1-7.35c-1.4-1.83-3.5-2.74-6.31-2.74-1.9,0-3.48.43-4.71,1.29-1.24.86-2.17,2.05-2.78,3.56-.61,1.51-.92,3.26-.92,5.23,0,3.07.71,5.53,2.14,7.39,1.42,1.86,3.51,2.79,6.27,2.79ZM471.05,629.73c-.59,0-1.17-.12-1.75-.35-.57-.24-1.13-.51-1.67-.81-.54-.3-1.05-.57-1.55-.81-.49-.24-.96-.35-1.41-.35-.59,0-.97.23-1.13.68s-.16.9,0,1.36h-1.95c-.31-1.18-.17-2.18.41-3,.58-.82,1.46-1.23,2.62-1.23.6,0,1.19.12,1.77.35.57.24,1.14.51,1.68.81.55.3,1.07.57,1.56.81.49.24.96.35,1.38.35.55,0,.92-.21,1.12-.64.2-.43.21-.91.03-1.46h1.95c.29,1.15.15,2.15-.42,3.01-.57.86-1.46,1.28-2.66,1.28Z"/>
        <path class="cls-1" d="M493.69,658.18c-2.29,0-4.26-.51-5.93-1.54-1.67-1.03-2.96-2.48-3.87-4.36-.91-1.88-1.37-4.1-1.37-6.67s.45-4.86,1.36-6.76c.91-1.9,2.19-3.35,3.85-4.37s3.63-1.53,5.92-1.53,4.3.53,5.94,1.58c1.64,1.05,2.9,2.58,3.76,4.57.86,1.99,1.27,4.39,1.23,7.19h-2.66v-.89c-.07-3.27-.81-5.77-2.21-7.48-1.4-1.71-3.41-2.57-6.02-2.57s-4.78.89-6.25,2.67c-1.47,1.78-2.2,4.29-2.2,7.53s.73,5.71,2.2,7.48,3.54,2.66,6.21,2.66c1.84,0,3.46-.43,4.84-1.29,1.38-.86,2.47-2.1,3.29-3.71l2.3,1.02c-.96,2.07-2.35,3.66-4.16,4.78s-3.89,1.68-6.22,1.68ZM484.26,646.3v-2.3h18.88v2.3h-18.88Z"/>
        <path class="cls-1" d="M518.3,658.14c-2.76,0-5.03-.58-6.83-1.75-1.79-1.17-2.9-2.79-3.33-4.87l2.61-.44c.37,1.42,1.24,2.54,2.61,3.39,1.37.84,3.05,1.26,5.05,1.26s3.55-.42,4.71-1.26c1.17-.84,1.75-1.99,1.75-3.45,0-.8-.18-1.45-.54-1.96-.36-.51-1.07-.98-2.14-1.41-1.06-.43-2.64-.93-4.74-1.5-2.21-.59-3.94-1.18-5.19-1.77-1.25-.59-2.13-1.26-2.63-2.01-.51-.75-.76-1.67-.76-2.77,0-1.31.38-2.47,1.13-3.46.75-1,1.8-1.77,3.15-2.33,1.35-.56,2.91-.84,4.68-.84s3.36.29,4.78.87c1.42.58,2.56,1.39,3.43,2.43.87,1.04,1.37,2.25,1.51,3.62l-2.61.49c-.25-1.53-1.03-2.75-2.32-3.64-1.3-.89-2.92-1.35-4.87-1.36-1.84-.03-3.35.34-4.51,1.1s-1.75,1.76-1.75,3c0,.71.2,1.31.61,1.8.41.49,1.13.95,2.16,1.36,1.03.41,2.49.86,4.38,1.33,2.3.59,4.1,1.2,5.39,1.81,1.29.62,2.2,1.35,2.73,2.18.53.83.8,1.86.8,3.09,0,2.21-.82,3.95-2.47,5.21s-3.91,1.89-6.78,1.89Z"/>
        <path class="cls-1" d="M551.16,658.18c-2.29,0-4.26-.51-5.93-1.54-1.67-1.03-2.96-2.48-3.87-4.36-.91-1.88-1.37-4.1-1.37-6.67s.45-4.86,1.36-6.76c.91-1.9,2.19-3.35,3.85-4.37s3.63-1.53,5.92-1.53,4.3.53,5.94,1.58c1.64,1.05,2.9,2.58,3.76,4.57.86,1.99,1.27,4.39,1.23,7.19h-2.66v-.89c-.07-3.27-.81-5.77-2.21-7.48-1.4-1.71-3.41-2.57-6.02-2.57s-4.78.89-6.25,2.67c-1.47,1.78-2.2,4.29-2.2,7.53s.73,5.71,2.2,7.48,3.54,2.66,6.21,2.66c1.84,0,3.46-.43,4.84-1.29,1.38-.86,2.47-2.1,3.29-3.71l2.3,1.02c-.96,2.07-2.35,3.66-4.16,4.78s-3.89,1.68-6.22,1.68ZM541.74,646.3v-2.3h18.88v2.3h-18.88Z"/>
        <path class="cls-1" d="M566.28,657.52v-23.9h2.32v5.38h.22v18.52h-2.54ZM580.51,657.52l.05-15.82c0-1.98-.54-3.54-1.62-4.7-1.08-1.16-2.48-1.74-4.2-1.74s-3.18.6-4.27,1.8c-1.09,1.2-1.64,2.81-1.64,4.81l-1.77-.89c0-1.55.35-2.92,1.06-4.13s1.68-2.15,2.91-2.84c1.23-.69,2.64-1.04,4.24-1.04,1.43,0,2.74.3,3.92.91,1.18.61,2.13,1.52,2.83,2.73s1.06,2.74,1.06,4.57l-.04,16.33h-2.52ZM594.71,657.52l.05-16.07c0-1.93-.55-3.45-1.65-4.55-1.1-1.1-2.47-1.65-4.1-1.65-.93,0-1.85.21-2.76.64-.91.43-1.66,1.12-2.27,2.08-.61.96-.91,2.26-.91,3.89l-1.79-.29c-.06-1.74.26-3.26.96-4.55.7-1.29,1.67-2.29,2.92-3,1.25-.71,2.67-1.06,4.26-1.06,2.35,0,4.24.72,5.7,2.17,1.45,1.45,2.18,3.42,2.18,5.93l-.05,16.44h-2.54Z"/>
        <path class="cls-1" d="M611.91,657.52v-31.87h9.49c.37,0,.97,0,1.8.02.83.02,1.63.08,2.38.2,2.39.32,4.37,1.22,5.95,2.69,1.58,1.47,2.76,3.33,3.54,5.58.78,2.25,1.17,4.73,1.17,7.45s-.39,5.22-1.17,7.47c-.78,2.25-1.96,4.11-3.54,5.57-1.58,1.46-3.56,2.35-5.95,2.68-.75.1-1.55.17-2.4.19-.85.02-1.44.03-1.78.03h-9.49ZM614.59,655.02h6.82c.66,0,1.35-.02,2.06-.06s1.31-.1,1.81-.19c1.98-.35,3.57-1.14,4.78-2.36,1.21-1.22,2.09-2.76,2.64-4.63.55-1.87.83-3.94.83-6.21s-.28-4.36-.84-6.23c-.56-1.87-1.45-3.41-2.66-4.63-1.21-1.22-2.8-2-4.76-2.33-.5-.09-1.12-.15-1.85-.19s-1.41-.06-2.03-.06h-6.82v26.87Z"/>
        <path class="cls-1" d="M648.09,658.18c-1.84,0-3.37-.32-4.59-.97-1.22-.65-2.13-1.51-2.73-2.58-.61-1.07-.91-2.23-.91-3.49,0-1.36.28-2.49.85-3.41.57-.91,1.33-1.65,2.28-2.21s2-.98,3.15-1.26c1.31-.3,2.73-.55,4.25-.76,1.52-.21,2.97-.4,4.35-.56,1.38-.16,2.5-.3,3.38-.42l-.93.55c.06-2.58-.42-4.5-1.45-5.76-1.03-1.26-2.83-1.89-5.41-1.89-1.82,0-3.31.41-4.48,1.23-1.17.82-2,2.08-2.47,3.79l-2.61-.73c.55-2.17,1.64-3.84,3.3-5,1.65-1.17,3.77-1.75,6.35-1.75,2.2,0,4.05.43,5.54,1.28,1.5.86,2.54,2.06,3.13,3.61.25.63.42,1.38.51,2.22.09.85.13,1.7.13,2.56v14.89h-2.32v-6.29l.86.22c-.72,2.15-1.99,3.81-3.78,4.98-1.8,1.17-3.93,1.75-6.4,1.75ZM648.22,655.84c1.62,0,3.05-.29,4.27-.87,1.23-.58,2.22-1.4,2.98-2.46.76-1.05,1.24-2.3,1.45-3.73.15-.8.23-1.66.24-2.59s.02-1.62.02-2.06l1.11.71c-.96.12-2.11.24-3.44.38s-2.7.3-4.08.49c-1.39.19-2.64.44-3.76.73-.69.19-1.39.47-2.09.83-.7.36-1.28.86-1.75,1.49-.47.63-.7,1.44-.7,2.41,0,.72.18,1.45.54,2.17.36.72.96,1.32,1.8,1.79.84.47,1.98.71,3.41.71Z"/>
        <path class="cls-1" d="M674.67,658.18c-2.26,0-4.16-.56-5.72-1.67-1.56-1.11-2.74-2.63-3.56-4.54s-1.23-4.06-1.23-6.45.41-4.49,1.22-6.4c.81-1.9,1.98-3.41,3.51-4.51s3.37-1.66,5.54-1.66,4.11.55,5.64,1.64,2.69,2.59,3.47,4.48,1.17,4.05,1.17,6.45-.39,4.54-1.17,6.44c-.78,1.9-1.92,3.42-3.41,4.54-1.49,1.12-3.31,1.68-5.47,1.68ZM674.82,655.75c1.79,0,3.27-.45,4.46-1.34,1.19-.89,2.07-2.11,2.66-3.65.58-1.54.87-3.29.87-5.23s-.29-3.71-.89-5.24c-.59-1.53-1.47-2.73-2.66-3.6-1.18-.86-2.65-1.29-4.4-1.29s-3.31.45-4.49,1.34c-1.18.89-2.06,2.1-2.63,3.63-.57,1.53-.86,3.25-.86,5.17s.3,3.67.9,5.21c.6,1.54,1.48,2.76,2.66,3.66s2.64,1.35,4.39,1.35ZM682.81,657.52v-18.41h-.22v-13.45h2.54v31.87h-2.32Z"/>
        <path class="cls-1" d="M701.14,658.18c-2.38,0-4.39-.54-6.04-1.62-1.65-1.08-2.91-2.57-3.78-4.47-.87-1.9-1.31-4.09-1.31-6.57s.44-4.69,1.33-6.58c.89-1.9,2.16-3.37,3.82-4.41,1.66-1.05,3.66-1.57,5.99-1.57s4.39.53,6.05,1.6c1.66,1.07,2.92,2.55,3.78,4.44.86,1.89,1.29,4.06,1.29,6.53s-.43,4.73-1.31,6.63c-.87,1.9-2.14,3.37-3.81,4.44-1.67,1.06-3.67,1.59-6.02,1.59ZM701.14,655.71c2.82,0,4.92-.94,6.32-2.83,1.39-1.89,2.09-4.34,2.09-7.35s-.7-5.52-2.1-7.35c-1.4-1.83-3.5-2.74-6.31-2.74-1.9,0-3.48.43-4.71,1.29-1.24.86-2.17,2.05-2.78,3.56-.61,1.51-.92,3.26-.92,5.23,0,3.07.71,5.53,2.14,7.39,1.42,1.86,3.51,2.79,6.27,2.79Z"/>
        <path class="cls-1" d="M725.85,658.14c-2.76,0-5.03-.58-6.83-1.75-1.79-1.17-2.9-2.79-3.33-4.87l2.61-.44c.37,1.42,1.24,2.54,2.61,3.39,1.37.84,3.05,1.26,5.05,1.26s3.55-.42,4.71-1.26c1.17-.84,1.75-1.99,1.75-3.45,0-.8-.18-1.45-.54-1.96-.36-.51-1.07-.98-2.14-1.41-1.06-.43-2.64-.93-4.74-1.5-2.21-.59-3.94-1.18-5.19-1.77-1.25-.59-2.13-1.26-2.63-2.01-.51-.75-.76-1.67-.76-2.77,0-1.31.38-2.47,1.13-3.46.75-1,1.8-1.77,3.15-2.33,1.35-.56,2.91-.84,4.68-.84s3.36.29,4.78.87c1.42.58,2.56,1.39,3.43,2.43.87,1.04,1.37,2.25,1.51,3.62l-2.61.49c-.25-1.53-1.03-2.75-2.32-3.64-1.3-.89-2.92-1.35-4.87-1.36-1.84-.03-3.35.34-4.51,1.1s-1.75,1.76-1.75,3c0,.71.2,1.31.61,1.8.41.49,1.13.95,2.16,1.36,1.03.41,2.49.86,4.38,1.33,2.3.59,4.1,1.2,5.39,1.81,1.29.62,2.2,1.35,2.73,2.18.53.83.8,1.86.8,3.09,0,2.21-.82,3.95-2.47,5.21-1.65,1.26-3.91,1.89-6.78,1.89Z"/>
      </g>
      <g>
        <path class="cls-1" d="M529.73,464.05c-5.69-5.04-8.53-12.46-8.53-22.25,0-1.72.12-3.35.29-4.92h-16.05c-10.17,0-18.09,2.52-23.78,7.57-5.69,5.05-8.53,12.5-8.53,22.36s2.84,17.2,8.53,22.25c5.69,5.05,13.62,7.57,23.78,7.57h21.05c10.17,0,18.09-2.52,23.78-7.57,4.71-4.18,7.44-10.01,8.25-17.44h-5.01c-10.17,0-18.09-2.52-23.78-7.57Z"/>
        <path class="cls-1" d="M598.35,419.45c-5.69-5.04-13.62-7.57-23.78-7.57h-21.05c-10.17,0-18.09,2.52-23.78,7.57-4.7,4.16-7.42,9.99-8.24,17.44h5c10.17,0,18.09,2.52,23.78,7.57,5.69,5.05,8.53,12.5,8.53,22.36,0,1.68-.12,3.27-.28,4.81h16.04c10.17,0,18.09-2.52,23.78-7.57,5.69-5.04,8.53-12.46,8.53-22.25s-2.84-17.31-8.53-22.36Z"/>
      </g>
    </g>
  </g>
</svg>